# 
# Generated by Sweet Home 3D - s?b feb 25 11:54:52 GMT-06:00 2023
# http://www.sweethome3d.com/
# 
mtllib testRoom.mtl
g ground_1
usemtl ground_1
v 190.0 0.0 92.05981
v 190.0 0.0 1607.0607
v 197.5 0.0 1599.5603
v 197.5 0.0 99.56018
v 1197.5 0.0 99.56018
v 1197.5 0.0 1599.5602
v 1205.0 0.0 1607.0607
v 1205.0 0.0 92.05981
vn 0.0 1.0 0.0
vn 0.0 0.0 0.0
f 3//1 2//1 7//1
f 6//1 3//1 7//1
f 6//1 7//1 8//1
f 5//1 6//1 8//1
f 5//1 8//1 1//1
f 4//1 5//1 1//1
f 4//1 1//1 2//1
f 4//1 2//1 3//1
g wall_1_2
usemtl wall_1_2
v 190.0 0.0 92.06018
v 193.75 0.0 95.81018
v 647.6302 0.0 95.81018
v 647.6302 0.0 92.06018
vn 0.0 -1.0 0.0
f 12//3 11//3 10//3
f 12//3 10//3 9//3
v 747.6302 0.0 92.06018
v 747.6302 0.0 95.81018
v 1201.25 0.0 95.81018
v 1205.0 0.0 92.06018
f 16//3 15//3 14//3
f 16//3 14//3 13//3
g wall_1_3
usemtl wall_1_2
v 647.6302 0.0 99.56018
f 11//3 17//3 4//3
f 11//3 4//3 10//3
v 747.6302 0.0 99.56018
f 15//3 5//3 18//3
f 15//3 18//3 14//3
g wall_1_4
usemtl wall_1_2
v 193.75 300.0 95.81018
v 190.0 300.0 92.06018
v 647.6302 300.0 92.06018
v 647.6302 300.0 95.81018
vn -0.70710677 0.0 0.70710677
vn 1.0 0.0 0.0
vn 0.0 0.0 -1.0
f 9//4 10//4 19//4 20//4
f 11//5 12//5 21//5 22//5
f 12//6 9//6 20//6 21//6
v 747.6302 300.0 95.81018
v 747.6302 300.0 92.06018
v 1205.0 300.0 92.06018
v 1201.25 300.0 95.81018
vn -1.0 0.0 0.0
vn 0.70710677 0.0 0.70710677
f 13//7 14//7 23//7 24//7
f 15//8 16//8 25//8 26//8
f 16//6 13//6 24//6 25//6
v 647.6302 200.0 92.06018
v 647.6302 200.0 95.81018
v 747.6302 200.0 95.81018
v 747.6302 200.0 92.06018
f 27//7 28//7 22//7 21//7
f 29//5 30//5 24//5 23//5
f 30//6 27//6 21//6 24//6
f 30//3 29//3 28//3
f 30//3 28//3 27//3
g wall_1_5
usemtl wall_1_2
v 197.5 300.0 99.56018
v 647.6302 300.0 99.56018
vn 0.0 0.0 1.0
f 10//4 4//4 31//4 19//4
f 4//9 17//9 32//9 31//9
f 17//5 11//5 22//5 32//5
v 747.6302 300.0 99.56018
v 1197.5 300.0 99.56018
f 14//7 18//7 33//7 23//7
f 18//9 5//9 34//9 33//9
f 5//8 15//8 26//8 34//8
v 647.6302 200.0 99.56018
v 747.6302 200.0 99.56018
f 28//7 35//7 32//7 22//7
f 35//9 36//9 33//9 32//9
f 36//5 29//5 23//5 33//5
f 29//3 36//3 35//3
f 29//3 35//3 28//3
g wall_1_6
usemtl wall_1_2
f 20//1 19//1 22//1
f 20//1 22//1 21//1
f 24//1 23//1 26//1
f 24//1 26//1 25//1
f 21//1 22//1 23//1
f 21//1 23//1 24//1
g wall_1_7
usemtl wall_1_2
f 19//1 31//1 32//1
f 19//1 32//1 22//1
f 23//1 33//1 34//1
f 23//1 34//1 26//1
f 22//1 32//1 33//1
f 22//1 33//1 23//1
g wall_2_8
usemtl wall_1_2
v 1201.25 0.0 1603.3102
v 1205.0 0.0 1607.0602
f 38//3 37//3 15//3
f 38//3 15//3 16//3
g wall_2_9
usemtl wall_1_2
f 37//3 6//3 5//3
f 37//3 5//3 15//3
g wall_2_10
usemtl wall_1_2
v 1205.0 300.0 1607.0602
v 1201.25 300.0 1603.3102
vn -0.70710677 0.0 -0.70710677
f 16//10 15//10 26//10 25//10
f 37//4 38//4 39//4 40//4
f 38//5 16//5 25//5 39//5
g wall_2_11
usemtl wall_1_2
v 1197.5 300.0 1599.5602
f 15//10 5//10 34//10 26//10
f 5//7 6//7 41//7 34//7
f 6//4 37//4 40//4 41//4
g wall_2_12
usemtl wall_1_2
f 25//1 26//1 40//1
f 25//1 40//1 39//1
g wall_2_13
usemtl wall_1_2
f 26//1 34//1 41//1
f 26//1 41//1 40//1
g wall_3_14
usemtl wall_1_2
v 747.68555 0.0 1603.3102
v 747.68555 0.0 1607.0602
f 38//3 43//3 42//3
f 38//3 42//3 37//3
v 647.68555 0.0 1603.3103
v 193.75 0.0 1603.3103
v 190.0 0.0 1607.0603
v 647.68555 0.0 1607.0603
f 47//3 46//3 45//3
f 47//3 45//3 44//3
g wall_3_15
usemtl wall_1_2
v 747.68555 0.0 1599.5602
f 37//3 42//3 48//3
f 37//3 48//3 6//3
v 647.68555 0.0 1599.5603
f 44//3 45//3 3//3
f 44//3 3//3 49//3
g wall_3_16
usemtl wall_1_2
v 747.68555 300.0 1607.0602
v 747.68555 300.0 1603.3102
vn 0.70710677 0.0 -0.70710677
f 42//7 43//7 50//7 51//7
f 43//9 38//9 39//9 50//9
f 38//11 37//11 40//11 39//11
v 190.0 300.0 1607.0603
v 193.75 300.0 1603.3103
v 647.68555 300.0 1607.0603
v 647.68555 300.0 1603.3103
f 45//10 46//10 52//10 53//10
f 46//9 47//9 54//9 52//9
f 47//5 44//5 55//5 54//5
v 647.68555 200.0 1603.3103
v 647.68555 200.0 1607.0603
v 747.68555 200.0 1607.0602
v 747.68555 200.0 1603.3102
vn 0.0000012 0.0 1.0
f 56//7 57//7 54//7 55//7
f 57//12 58//12 50//12 54//12
f 58//5 59//5 51//5 50//5
f 58//3 57//3 56//3
f 58//3 56//3 59//3
g wall_3_17
usemtl wall_1_2
v 747.68555 300.0 1599.5602
f 6//6 48//6 60//6 41//6
f 48//7 42//7 51//7 60//7
f 37//11 6//11 41//11 40//11
v 197.5 300.0 1599.5603
v 647.68555 300.0 1599.5603
f 49//6 3//6 61//6 62//6
f 3//10 45//10 53//10 61//10
f 44//5 49//5 62//5 55//5
v 747.68555 200.0 1599.5602
v 647.68555 200.0 1599.5603
vn -0.0000012 0.0 -1.0
f 63//13 64//13 62//13 60//13
f 64//7 56//7 55//7 62//7
f 59//5 63//5 60//5 51//5
f 59//3 56//3 64//3
f 59//3 64//3 63//3
g wall_3_18
usemtl wall_1_2
f 40//1 51//1 50//1
f 40//1 50//1 39//1
f 55//1 53//1 52//1
f 55//1 52//1 54//1
f 51//1 55//1 54//1
f 51//1 54//1 50//1
g wall_3_19
usemtl wall_1_2
f 41//1 60//1 51//1
f 41//1 51//1 40//1
f 62//1 61//1 53//1
f 62//1 53//1 55//1
f 60//1 62//1 55//1
f 60//1 55//1 51//1
g wall_4_20
usemtl wall_1_2
f 10//3 45//3 46//3
f 10//3 46//3 9//3
g wall_4_21
usemtl wall_1_2
f 4//3 3//3 45//3
f 4//3 45//3 10//3
g wall_4_22
usemtl wall_1_2
f 9//7 46//7 52//7 20//7
f 46//8 45//8 53//8 52//8
f 10//11 9//11 20//11 19//11
g wall_4_23
usemtl wall_1_2
f 45//8 3//8 61//8 53//8
f 3//5 4//5 31//5 61//5
f 4//11 10//11 19//11 31//11
g wall_4_24
usemtl wall_1_2
f 20//1 52//1 53//1
f 20//1 53//1 19//1
g wall_4_25
usemtl wall_1_2
f 19//1 53//1 61//1
f 19//1 61//1 31//1
g room_5_26
usemtl wall_1_2
f 3//1 6//1 5//1
f 3//1 5//1 4//1
g serviceHatch_27
usemtl white
v 747.6302 0.0 99.560555
v 647.6302 0.0 99.560555
v 697.6302 0.0 95.81018
v 747.6302 0.0 92.05981
v 647.6302 0.0 92.05981
v 747.6302 100.0 95.81018
v 747.6302 200.0 92.05981
v 747.6302 200.0 99.560555
v 647.6302 100.0 95.81018
v 647.6302 200.0 99.560555
v 647.6302 200.0 92.05981
v 697.6302 200.0 95.81018
v 739.2622 0.49999952 99.560555
v 655.99817 0.49999952 99.560555
v 747.3802 0.49999952 99.560555
v 747.3802 16.736 99.560555
v 655.99817 199.5 99.560555
v 739.2622 199.5 99.560555
v 647.8802 0.49999952 99.560555
v 647.8802 16.736 99.560555
v 747.3802 0.49999952 92.05981
v 739.2622 0.49999952 92.05981
v 647.8802 16.736 92.05981
v 747.3802 199.5 92.05981
v 739.2622 199.5 92.05981
v 747.3802 16.736 92.05981
v 747.3802 199.5 99.560555
v 747.3802 183.26399 99.560555
v 647.8802 199.5 99.560555
v 647.8802 183.26399 99.560555
v 655.99817 0.49999952 92.05981
v 647.8802 199.5 92.05981
v 647.8802 183.26399 92.05981
v 655.99817 199.5 92.05981
v 747.3802 183.26399 92.05981
v 647.8802 0.49999952 92.05981
v 647.8802 1.9420028 92.05981
v 746.6592 199.5 99.560555
v 647.8802 198.058 99.560555
v 648.6012 199.5 92.05981
v 747.3802 198.058 92.05981
v 697.6302 0.49999952 95.81018
v 747.3802 100.0 95.81018
v 647.8802 100.0 95.81018
v 697.6302 199.5 95.81018
vn 0.0 0.0 0.99999994
vn 0.0 0.0 -0.99999994
f 65//3 66//3 67//3
f 68//3 65//3 67//3
f 69//3 68//3 67//3
f 66//3 69//3 67//3
f 65//5 68//5 70//5
f 68//5 71//5 70//5
f 71//5 72//5 70//5
f 72//5 65//5 70//5
f 69//7 66//7 73//7
f 66//7 74//7 73//7
f 74//7 75//7 73//7
f 75//7 69//7 73//7
f 74//1 72//1 76//1
f 72//1 71//1 76//1
f 71//1 75//1 76//1
f 75//1 74//1 76//1
f 65//14 77//14 78//14
f 65//9 78//9 66//9
f 79//9 65//9 80//9
f 65//9 72//9 80//9
f 74//14 81//14 82//14
f 74//9 82//9 72//9
f 66//9 83//9 84//9
f 74//9 66//9 84//9
f 85//6 68//6 86//6
f 68//6 69//6 86//6
f 69//6 75//6 87//6
f 71//6 88//6 89//6
f 75//6 71//6 89//6
f 68//6 85//6 90//6
f 71//6 68//6 90//6
f 65//9 79//9 77//9
f 83//9 66//9 78//9
f 72//9 91//9 92//9
f 80//14 72//14 92//14
f 74//9 93//9 81//9
f 74//14 84//14 94//14
f 86//15 69//15 95//15
f 75//6 96//6 97//6
f 87//15 75//15 97//15
f 75//15 89//15 98//15
f 71//15 90//15 99//15
f 69//6 100//6 95//6
f 87//6 101//6 69//6
f 101//6 100//6 69//6
f 82//9 102//9 72//9
f 102//9 91//9 72//9
f 94//9 103//9 74//9
f 103//9 93//9 74//9
f 98//6 104//6 75//6
f 104//6 96//6 75//6
f 99//6 105//6 71//6
f 105//6 88//6 71//6
f 106//1 78//1 77//1
f 86//1 106//1 85//1
f 106//1 86//1 95//1
f 78//1 106//1 83//1
f 80//7 107//7 79//7
f 107//7 99//7 90//7
f 107//7 80//7 92//7
f 108//5 94//5 84//5
f 108//5 87//5 97//5
f 109//3 82//3 81//3
f 109//3 98//3 89//3
f 79//1 85//1 77//1
f 77//1 85//1 106//1
f 100//1 83//1 95//1
f 95//1 83//1 106//1
f 85//7 79//7 90//7
f 90//7 79//7 107//7
f 105//7 92//7 88//7
f 88//7 92//7 91//7
f 99//7 107//7 105//7
f 105//7 107//7 92//7
f 101//5 84//5 100//5
f 100//5 84//5 83//5
f 87//5 108//5 101//5
f 101//5 108//5 84//5
f 103//5 97//5 93//5
f 93//5 97//5 96//5
f 94//5 108//5 103//5
f 103//5 108//5 97//5
f 102//3 89//3 91//3
f 91//3 89//3 88//3
f 82//3 109//3 102//3
f 102//3 109//3 89//3
f 104//3 81//3 96//3
f 96//3 81//3 93//3
f 98//3 109//3 104//3
f 104//3 109//3 81//3
g serviceHatch_28
usemtl white
v 647.68555 0.0 1599.5599
v 747.68555 0.0 1599.5599
v 697.68555 0.0 1603.3103
v 647.68555 0.0 1607.0607
v 747.68555 0.0 1607.0607
v 647.68555 100.0 1603.3103
v 647.68555 200.0 1607.0607
v 647.68555 200.0 1599.5599
v 747.68555 100.0 1603.3103
v 747.68555 200.0 1599.5599
v 747.68555 200.0 1607.0607
v 697.68555 200.0 1603.3103
v 656.0535 0.49999952 1599.5599
v 739.31757 0.49999952 1599.5599
v 647.93555 0.49999952 1599.5599
v 647.93555 16.736 1599.5599
v 739.31757 199.5 1599.5599
v 656.0535 199.5 1599.5599
v 747.43555 0.49999952 1599.5599
v 747.43555 16.736 1599.5599
v 647.93555 0.49999952 1607.0607
v 656.0535 0.49999952 1607.0607
v 747.43555 16.736 1607.0607
v 647.93555 199.5 1607.0607
v 656.0535 199.5 1607.0607
v 647.93555 16.736 1607.0607
v 647.93555 199.5 1599.5599
v 647.93555 183.26399 1599.5599
v 747.43555 199.5 1599.5599
v 747.43555 183.26399 1599.5599
v 739.31757 0.49999952 1607.0607
v 747.43555 199.5 1607.0607
v 747.43555 183.26399 1607.0607
v 739.31757 199.5 1607.0607
v 647.93555 183.26399 1607.0607
v 747.43555 0.49999952 1607.0607
v 747.43555 1.9420028 1607.0607
v 648.65656 199.5 1599.5599
v 747.43555 198.058 1599.5599
v 746.71454 199.5 1607.0607
v 647.93555 198.058 1607.0607
v 697.68555 0.49999952 1603.3103
v 647.93555 100.0 1603.3103
v 747.43555 100.0 1603.3103
v 697.68555 199.5 1603.3103
vn -1.0 0.0 0.0000002
vn 1.0 0.0 -0.0000002
vn -0.0000002 0.0 -0.99999994
vn -0.0000002 0.0 -1.0
vn 0.0000002 0.0 1.0
vn 0.0000002 0.0 0.99999994
f 110//3 111//3 112//3
f 113//3 110//3 112//3
f 114//3 113//3 112//3
f 111//3 114//3 112//3
f 110//16 113//16 115//16
f 113//16 116//16 115//16
f 116//16 117//16 115//16
f 117//16 110//16 115//16
f 114//17 111//17 118//17
f 111//17 119//17 118//17
f 119//17 120//17 118//17
f 120//17 114//17 118//17
f 119//1 117//1 121//1
f 117//1 116//1 121//1
f 116//1 120//1 121//1
f 120//1 119//1 121//1
f 110//18 122//18 123//18
f 110//19 123//19 111//19
f 124//19 110//19 125//19
f 110//19 117//19 125//19
f 119//18 126//18 127//18
f 119//19 127//19 117//19
f 111//19 128//19 129//19
f 119//19 111//19 129//19
f 130//20 113//20 131//20
f 113//20 114//20 131//20
f 114//20 120//20 132//20
f 116//20 133//20 134//20
f 120//20 116//20 134//20
f 113//20 130//20 135//20
f 116//20 113//20 135//20
f 110//19 124//19 122//19
f 128//19 111//19 123//19
f 117//19 136//19 137//19
f 125//18 117//18 137//18
f 119//19 138//19 126//19
f 119//18 129//18 139//18
f 131//21 114//21 140//21
f 120//20 141//20 142//20
f 132//21 120//21 142//21
f 120//21 134//21 143//21
f 116//21 135//21 144//21
f 114//20 145//20 140//20
f 132//20 146//20 114//20
f 146//20 145//20 114//20
f 127//19 147//19 117//19
f 147//19 136//19 117//19
f 139//19 148//19 119//19
f 148//19 138//19 119//19
f 143//20 149//20 120//20
f 149//20 141//20 120//20
f 144//20 150//20 116//20
f 150//20 133//20 116//20
f 151//1 123//1 122//1
f 131//1 151//1 130//1
f 151//1 131//1 140//1
f 123//1 151//1 128//1
f 125//17 152//17 124//17
f 152//17 144//17 135//17
f 152//17 125//17 137//17
f 153//16 139//16 129//16
f 153//16 132//16 142//16
f 154//3 127//3 126//3
f 154//3 143//3 134//3
f 124//1 130//1 122//1
f 122//1 130//1 151//1
f 145//1 128//1 140//1
f 140//1 128//1 151//1
f 130//17 124//17 135//17
f 135//17 124//17 152//17
f 150//17 137//17 133//17
f 133//17 137//17 136//17
f 144//17 152//17 150//17
f 150//17 152//17 137//17
f 146//16 129//16 145//16
f 145//16 129//16 128//16
f 132//16 153//16 146//16
f 146//16 153//16 129//16
f 148//16 142//16 138//16
f 138//16 142//16 141//16
f 139//16 153//16 148//16
f 148//16 153//16 142//16
f 147//3 134//3 136//3
f 136//3 134//3 133//3
f 127//3 154//3 147//3
f 147//3 154//3 134//3
f 149//3 126//3 141//3
f 141//3 126//3 138//3
f 143//3 154//3 149//3
f 149//3 154//3 126//3
